<?xml version="1.0" encoding="UTF-8"?>
<svg width="86px" height="94px" viewBox="0 0 86 94" version="1.1" xmlns="http://www.w3.org/2000/svg" xmlns:xlink="http://www.w3.org/1999/xlink">
    <!-- Generator: Sketch 42 (36781) - http://www.bohemiancoding.com/sketch -->
    <title>Group</title>
    <desc>Created with Sketch.</desc>
    <defs>
        <linearGradient x1="40.0331589%" y1="-5.59442461%" x2="45.1176342%" y2="96.3167846%" id="linearGradient-1">
            <stop stop-color="#FBDA61" offset="0%"></stop>
            <stop stop-color="#F76B1C" offset="100%"></stop>
        </linearGradient>
        <path d="M5.22142967,7.34353875 C11.4389664,-1.02260803 12.2447761,-3.02060441 22.1871114,7.34353875 C29.7888333,18.8968479 34.5724808,27.4865035 22.1871114,42.7493189 C18.0462122,51.3909855 12.5565566,51.8255077 5.22142967,42.7493189 C0.59599042,33.0964628 -0.0652840153,15.1811673 5.22142967,7.34353875 Z" id="path-2"></path>
        <filter x="-50%" y="-50%" width="200%" height="200%" filterUnits="objectBoundingBox" id="filter-3">
            <feOffset dx="0" dy="1" in="SourceAlpha" result="shadowOffsetOuter1"></feOffset>
            <feColorMatrix values="0 0 0 0 0.963461947   0 0 0 0 0.397477369   0 0 0 0 0.07580268  0 0 0 1 0" type="matrix" in="shadowOffsetOuter1"></feColorMatrix>
        </filter>
        <linearGradient x1="37.5931708%" y1="15.4952795%" x2="54.7096968%" y2="107.318077%" id="linearGradient-4">
            <stop stop-color="#F7A6F1" offset="0%"></stop>
            <stop stop-color="#F13C94" offset="100%"></stop>
        </linearGradient>
        <linearGradient x1="50%" y1="0%" x2="50%" y2="100%" id="linearGradient-5">
            <stop stop-color="#FBDA61" stop-opacity="0.754925272" offset="0%"></stop>
            <stop stop-color="#FF6C18" offset="100%"></stop>
        </linearGradient>
        <path d="M5.22142967,7.34353875 C11.4389664,-1.02260803 12.2447761,-3.02060441 22.1871114,7.34353875 C29.7888333,18.8968479 34.5724808,27.4865035 22.1871114,42.7493189 C18.0462122,51.3909855 12.5565566,51.8255077 5.22142967,42.7493189 C0.59599042,33.0964628 -0.0652840153,15.1811673 5.22142967,7.34353875 Z" id="path-6"></path>
        <filter x="-50%" y="-50%" width="200%" height="200%" filterUnits="objectBoundingBox" id="filter-7">
            <feOffset dx="0" dy="1" in="SourceAlpha" result="shadowOffsetOuter1"></feOffset>
            <feColorMatrix values="0 0 0 0 0.963461947   0 0 0 0 0.397477369   0 0 0 0 0.07580268  0 0 0 1 0" type="matrix" in="shadowOffsetOuter1"></feColorMatrix>
        </filter>
        <linearGradient x1="50%" y1="-13.4036676%" x2="50%" y2="91.7122396%" id="linearGradient-8">
            <stop stop-color="#FBEA6B" offset="0%"></stop>
            <stop stop-color="#FBDA61" offset="0%"></stop>
            <stop stop-color="#FACB58" offset="12.9824574%"></stop>
            <stop stop-color="#F76B1C" offset="100%"></stop>
        </linearGradient>
        <ellipse id="path-9" cx="15.78044" cy="19.2872044" rx="12.2736755" ry="8.76691109"></ellipse>
        <filter x="-50%" y="-50%" width="200%" height="200%" filterUnits="objectBoundingBox" id="filter-10">
            <feOffset dx="0" dy="1" in="SourceAlpha" result="shadowOffsetOuter1"></feOffset>
            <feColorMatrix values="0 0 0 0 0.85028699   0 0 0 0 0.85028699   0 0 0 0 0.85028699  0 0 0 1 0" type="matrix" in="shadowOffsetOuter1"></feColorMatrix>
        </filter>
        <ellipse id="path-11" cx="8.76691109" cy="12.2736755" rx="8.76691109" ry="8.76691109"></ellipse>
        <filter x="-50%" y="-50%" width="200%" height="200%" filterUnits="objectBoundingBox" id="filter-12">
            <feOffset dx="-1" dy="1" in="SourceAlpha" result="shadowOffsetOuter1"></feOffset>
            <feColorMatrix values="0 0 0 0 0.850980392   0 0 0 0 0.850980392   0 0 0 0 0.850980392  0 0 0 1 0" type="matrix" in="shadowOffsetOuter1"></feColorMatrix>
        </filter>
        <ellipse id="path-13" cx="22.7939688" cy="12.2736755" rx="8.76691109" ry="8.76691109"></ellipse>
        <filter x="-50%" y="-50%" width="200%" height="200%" filterUnits="objectBoundingBox" id="filter-14">
            <feOffset dx="-1" dy="1" in="SourceAlpha" result="shadowOffsetOuter1"></feOffset>
            <feColorMatrix values="0 0 0 0 0.850980392   0 0 0 0 0.850980392   0 0 0 0 0.850980392  0 0 0 1 0" type="matrix" in="shadowOffsetOuter1"></feColorMatrix>
        </filter>
        <radialGradient cx="50%" cy="81.1034116%" fx="50%" fy="81.1034116%" r="9.16928873%" id="radialGradient-15">
            <stop stop-color="#FFFFFF" offset="0%"></stop>
            <stop stop-color="#000000" offset="100%"></stop>
        </radialGradient>
    </defs>
    <g id="Page-1" stroke="none" stroke-width="1" fill="none" fill-rule="evenodd">
        <g id="Group" transform="translate(-10.000000, -5.000000)">
            <g id="corgi" transform="translate(0.178063, 0.029677)">
                <g id="ears">
                    <g id="left-ear" transform="translate(80.913705, 30.225640) rotate(25.000000) translate(-80.913705, -30.225640) translate(64.888064, 4.851708)">
                        <g id="Rectangle">
                            <use fill="black" fill-opacity="1" filter="url(#filter-3)" xlink:href="#path-2"></use>
                            <use fill="url(#linearGradient-1)" fill-rule="evenodd" xlink:href="#path-2"></use>
                        </g>
                        <path d="M7.17385228,20.0610876 C10.6886319,15.114651 11.1441569,13.933347 16.7645688,20.0610876 C21.0618296,26.8919158 25.4277422,34.2508515 18.4262807,43.2749042 C16.0854264,48.3842404 12.9567525,48.6411491 8.81019803,43.2749042 C6.19543269,37.567708 4.18526786,24.6950409 7.17385228,20.0610876 Z" id="Rectangle" stroke="url(#linearGradient-5)" fill="url(#linearGradient-4)"></path>
                    </g>
                    <g id="left-ear" transform="translate(25.159908, 29.796923) scale(-1, 1) rotate(25.000000) translate(-25.159908, -29.796923) translate(10.256159, 4.372881)">
                        <g id="Rectangle">
                            <use fill="black" fill-opacity="1" filter="url(#filter-7)" xlink:href="#path-6"></use>
                            <use fill="url(#linearGradient-1)" fill-rule="evenodd" xlink:href="#path-6"></use>
                        </g>
                        <path d="M7.17385228,20.0610876 C10.6886319,15.114651 11.1441569,13.933347 16.7645688,20.0610876 C21.0618296,26.8919158 25.4277422,34.2508515 18.4262807,43.2749042 C16.0854264,48.3842404 12.9567525,48.6411491 8.81019803,43.2749042 C6.19543269,37.567708 4.18526786,24.6950409 7.17385228,20.0610876 Z" id="Rectangle" stroke="url(#linearGradient-5)" fill="url(#linearGradient-4)"></path>
                    </g>
                </g>
                <g id="face" transform="translate(18.565223, 42.081173)">
                    <path d="M34.4279271,0.866716654 C59.6245025,7.69901495 66.4248478,11.1325391 68.6695516,18.7128014 C70.091133,27.7725183 61.5008053,33.7592727 61.5008053,42.9112401 C61.5008053,46.863219 59.5169545,47.7579177 55.5904149,49.8841149 C41.779857,59.7324339 22.9052132,56.5866599 14.5163778,49.4590989 C7.72850463,46.0830226 7.88947889,45.5193451 7.88947889,42.4890356 C7.88947889,31.9399421 -1.42004082,32.2112163 0.186302558,18.7128014 C3.13060575,10.5920177 12.048283,6.53657142 34.4279271,0.866716654 Z" id="Polygon-2" fill="url(#linearGradient-8)" transform="translate(34.414178, 28.486718) rotate(180.000000) translate(-34.414178, -28.486718) "></path>
                    <path d="M33.5227421,3.08364331 C35.6842854,3.08364331 34.1595249,3.08364331 35.6842854,3.08364331 C35.8843658,5.25041274 36.0889817,7.73174475 36.2866179,10.4278094 C37.3344789,24.7222595 38.6777718,48.4063329 37.1253143,48.4063329 C34.7127254,48.4063329 37.1253143,48.4063329 32.0817133,48.4063329 C30.820813,34.75142 32.2618419,16.7385562 33.5227421,3.08364331 Z" id="Rectangle-2" fill="#FFFFFF"></path>
                </g>
                <g id="eyes" transform="translate(31.560880, 51.389570)">
                    <g id="nose/mouth" transform="translate(5.260147, 14.027058)">
                        <ellipse id="Oval-4" fill="#FFFFFF" cx="15.78044" cy="12.2736755" rx="14.0270577" ry="12.2736755"></ellipse>
                        <g id="Oval-8">
                            <use fill="black" fill-opacity="1" filter="url(#filter-10)" xlink:href="#path-9"></use>
                            <use fill="#FFFFFF" fill-rule="evenodd" xlink:href="#path-9"></use>
                        </g>
                        <ellipse id="Oval-9" fill="#FD83C3" cx="15.78044" cy="19.2872044" rx="5.26014665" ry="5.26014665"></ellipse>
                        <g id="Oval-8">
                            <use fill="black" fill-opacity="1" filter="url(#filter-12)" xlink:href="#path-11"></use>
                            <use fill="#FFFFFF" fill-rule="evenodd" xlink:href="#path-11"></use>
                        </g>
                        <g id="Oval-8" transform="translate(22.793969, 12.273676) scale(-1, 1) translate(-22.793969, -12.273676) ">
                            <use fill="black" fill-opacity="1" filter="url(#filter-14)" xlink:href="#path-13"></use>
                            <use fill="#FFFFFF" fill-rule="evenodd" xlink:href="#path-13"></use>
                        </g>
                        <path d="M15.7748005,1.75338222 C19.894418,1.75338222 18.9708736,6.87528122 25.0962334,6.87528122 C27.3628607,7.416113 26.5678468,12.4843975 21.5357629,14.5696894 C16.8569571,16.3400463 14.53872,16.0200934 10.0138382,14.5696894 C5.48895648,13.1192853 3.95663568,7.31274362 6.4533677,6.87528122 C13.3002954,6.87528122 11.9157601,1.75338222 15.7748005,1.75338222 Z" id="Polygon" fill="url(#radialGradient-15)" transform="translate(15.780440, 8.766911) rotate(180.000000) translate(-15.780440, -8.766911) "></path>
                    </g>
                    <g id="left-eye" transform="translate(26.300733, 0.000000)">
                        <path d="M7.89021998,15.78044 C12.2478681,15.78044 15.6702115,12.2478681 15.6702115,7.89021998 C15.6702115,3.53257181 12.2478681,-4.4408921e-14 7.89021998,-4.4408921e-14 C3.53257181,-4.4408921e-14 0.155390074,4.00216661 0.155390074,8.35981478 C0.155390074,12.7174629 3.53257181,15.78044 7.89021998,15.78044 Z" id="Oval-5" fill="#FFFFFF"></path>
                        <ellipse id="Oval-2" stroke="#753A06" fill="#000000" cx="7.75375391" cy="10.0160256" rx="4.6741453" ry="4.6741453"></ellipse>
                        <path d="M0.10909339,8.76691109 C0.0373454582,8.35961484 0,7.9412086 0,7.51449522 C0,3.36435411 3.53257181,-4.4408921e-14 7.89021998,-4.4408921e-14 C12.2478681,-4.4408921e-14 15.78044,3.36435411 15.78044,7.51449522 C15.78044,7.9412086 15.7430945,8.35961484 15.6713466,8.76691109 C15.7430945,9.17420734 15.78044,9.59261358 15.78044,10.019327 C15.78044,14.1694681 12.2478681,17.5338222 7.89021998,17.5338222 C3.53257181,17.5338222 0,14.1694681 0,10.019327 C0,9.59261358 0.0373454582,9.17420734 0.10909339,8.76691109 Z M0.10909339,8.76691109 C0.735153536,12.3209083 3.98062086,15.0289904 7.89021998,15.0289904 C11.7998191,15.0289904 15.0452864,12.3209083 15.6713466,8.76691109 C15.0452864,5.21291387 11.7998191,2.50483174 7.89021998,2.50483174 C3.98062086,2.50483174 0.735153536,5.21291387 0.10909339,8.76691109 Z" id="Combined-Shape" fill="#F6A623"></path>
                        <path d="M11.3969844,8.64041586 C11.8811675,8.64041586 12.2736755,8.37440311 12.2736755,7.89021998 C12.2736755,7.40603685 11.8811675,7.01352887 11.3969844,7.01352887 C10.9128013,7.01352887 10.5202933,7.40603685 10.5202933,7.89021998 C10.5202933,8.37440311 10.9128013,8.64041586 11.3969844,8.64041586 Z" id="Oval-7" fill="#FFFFFF"></path>
                        <path d="M9.6436022,6.88703365 C10.1277853,6.88703365 10.5202933,6.62102089 10.5202933,6.13683776 C10.5202933,5.65265463 10.1277853,5.26014665 9.6436022,5.26014665 C9.15941907,5.26014665 8.76691109,5.65265463 8.76691109,6.13683776 C8.76691109,6.62102089 9.15941907,6.88703365 9.6436022,6.88703365 Z" id="Oval-7" fill="#FFFFFF"></path>
                    </g>
                    <g id="right-eye">
                        <path d="M7.89021998,15.78044 C12.2478681,15.78044 15.6702115,12.2478681 15.6702115,7.89021998 C15.6702115,3.53257181 12.2478681,5.18104078e-14 7.89021998,5.18104078e-14 C3.53257181,5.18104078e-14 0.155390074,4.00216661 0.155390074,8.35981478 C0.155390074,12.7174629 3.53257181,15.78044 7.89021998,15.78044 Z" id="Oval-5" fill="#FFFFFF"></path>
                        <ellipse id="Oval-2" stroke="#753A06" fill="#000000" cx="8.19164556" cy="10.0160256" rx="4.6741453" ry="4.6741453"></ellipse>
                        <path d="M0.10909339,8.76691109 C0.0373454582,8.35961484 0,7.9412086 0,7.51449522 C0,3.36435411 3.53257181,5.18104078e-14 7.89021998,5.18104078e-14 C12.2478681,5.18104078e-14 15.78044,3.36435411 15.78044,7.51449522 C15.78044,7.9412086 15.7430945,8.35961484 15.6713466,8.76691109 C15.7430945,9.17420734 15.78044,9.59261358 15.78044,10.019327 C15.78044,14.1694681 12.2478681,17.5338222 7.89021998,17.5338222 C3.53257181,17.5338222 0,14.1694681 0,10.019327 C0,9.59261358 0.0373454582,9.17420734 0.10909339,8.76691109 Z M0.10909339,8.76691109 C0.735153536,12.3209083 3.98062086,15.0289904 7.89021998,15.0289904 C11.7998191,15.0289904 15.0452864,12.3209083 15.6713466,8.76691109 C15.0452864,5.21291387 11.7998191,2.50483174 7.89021998,2.50483174 C3.98062086,2.50483174 0.735153536,5.21291387 0.10909339,8.76691109 Z" id="Combined-Shape" fill="#F6A623"></path>
                        <path d="M11.7659308,8.64041586 C12.2501139,8.64041586 12.6426219,8.37440311 12.6426219,7.89021998 C12.6426219,7.40603685 12.2501139,7.01352887 11.7659308,7.01352887 C11.2817477,7.01352887 10.8892397,7.40603685 10.8892397,7.89021998 C10.8892397,8.37440311 11.2817477,8.64041586 11.7659308,8.64041586 Z" id="Oval-7" fill="#FFFFFF"></path>
                        <path d="M9.6436022,6.88703365 C10.1277853,6.88703365 10.5202933,6.62102089 10.5202933,6.13683776 C10.5202933,5.65265463 10.1277853,5.26014665 9.6436022,5.26014665 C9.15941907,5.26014665 8.76691109,5.65265463 8.76691109,6.13683776 C8.76691109,6.62102089 9.15941907,6.88703365 9.6436022,6.88703365 Z" id="Oval-7" fill="#FFFFFF"></path>
                    </g>
                </g>
            </g>
        </g>
    </g>
</svg>